# xmcd
#
# Track frame offsets: 
#        150
#        16445
#        33274
#        53443
#        68984
#        84947
#        102253
#        121712
#        139997
#        156261
#        173008
#
# Disc length: 2685 seconds
#
# Revision: 0
# Processed by: cddbd v1.5.2PL0 Copyright (c) Steve Scherf et al.
# Submitted via: ExactAudioCopy v1.0b2
#
DISCID=820a7b0b
DTITLE=Chely Wright - Lifted Off the Ground
DYEAR=2010
DGENRE=Country
TTITLE0=Broken
TTITLE1=Heavenly Days
TTITLE2=Hang Out In Your Heart
TTITLE3=Notes To The Coroner
TTITLE4=Snow Globe
TTITLE5=Like Me
TTITLE6=That Train
TTITLE7=Damn Liar
TTITLE8=Wish Me Away
TTITLE9=Object Of Your Rejection (Dirty)
TTITLE10=Shadows Of Doubt
EXTD=
EXTT0=
EXTT1=
EXTT2=
EXTT3=
EXTT4=
EXTT5=
EXTT6=
EXTT7=
EXTT8=
EXTT9=
EXTT10=
PLAYORDER=
